<svg width="90" height="90" viewBox="0 0 90 90" fill="none" xmlns="http://www.w3.org/2000/svg">
<rect width="90" height="90" fill="black"/>
<path d="M7.65776 46.4498C8.57331 46.4498 9.31553 45.7076 9.31553 44.792C9.31553 43.8765 8.57331 43.1343 7.65776 43.1343C6.7422 43.1343 6 43.8765 6 44.792C6 45.7076 6.7422 46.4498 7.65776 46.4498Z" fill="#EEB92F"/>
<path d="M11.4865 46.2012C12.2647 46.2012 12.8956 45.5704 12.8956 44.7921C12.8956 44.0139 12.2647 43.3831 11.4865 43.3831C10.7083 43.3831 10.0774 44.0139 10.0774 44.7921C10.0774 45.5704 10.7083 46.2012 11.4865 46.2012Z" fill="#EEB92F"/>
<path d="M9.57205 49.5171C10.3503 49.5171 10.9812 48.8863 10.9812 48.1081C10.9812 47.3298 10.3503 46.699 9.57205 46.699C8.79384 46.699 8.16296 47.3298 8.16296 48.1081C8.16296 48.8863 8.79384 49.5171 9.57205 49.5171Z" fill="#EEB92F"/>
<path d="M13.401 49.2684C14.0419 49.2684 14.5615 48.7488 14.5615 48.1079C14.5615 47.4671 14.0419 46.9475 13.401 46.9475C12.7601 46.9475 12.2406 47.4671 12.2406 48.1079C12.2406 48.7488 12.7601 49.2684 13.401 49.2684Z" fill="#EEB92F"/>
<path d="M17.2298 49.0196C17.7333 49.0196 18.1415 48.6114 18.1415 48.1078C18.1415 47.6043 17.7333 47.196 17.2298 47.196C16.7262 47.196 16.318 47.6043 16.318 48.1078C16.318 48.6114 16.7262 49.0196 17.2298 49.0196Z" fill="#EEB92F"/>
<path d="M21.0586 48.771C21.4248 48.771 21.7217 48.4741 21.7217 48.1079C21.7217 47.7417 21.4248 47.4448 21.0586 47.4448C20.6924 47.4448 20.3955 47.7417 20.3955 48.1079C20.3955 48.4741 20.6924 48.771 21.0586 48.771Z" fill="#EEB92F"/>
<path d="M11.4865 52.5838C12.1274 52.5838 12.6469 52.0642 12.6469 51.4234C12.6469 50.7825 12.1274 50.2629 11.4865 50.2629C10.8456 50.2629 10.326 50.7825 10.326 51.4234C10.326 52.0642 10.8456 52.5838 11.4865 52.5838Z" fill="#EEB92F"/>
<path d="M15.3156 52.3353C15.8191 52.3353 16.2273 51.927 16.2273 51.4235C16.2273 50.9199 15.8191 50.5117 15.3156 50.5117C14.812 50.5117 14.4038 50.9199 14.4038 51.4235C14.4038 51.927 14.812 52.3353 15.3156 52.3353Z" fill="#EEB92F"/>
<path d="M19.1441 52.0865C19.5103 52.0865 19.8072 51.7896 19.8072 51.4234C19.8072 51.0571 19.5103 50.7603 19.1441 50.7603C18.7778 50.7603 18.481 51.0571 18.481 51.4234C18.481 51.7896 18.7778 52.0865 19.1441 52.0865Z" fill="#EEB92F"/>
<path d="M9.57205 42.8853C10.3503 42.8853 10.9812 42.2545 10.9812 41.4762C10.9812 40.698 10.3503 40.0671 9.57205 40.0671C8.79384 40.0671 8.16296 40.698 8.16296 41.4762C8.16296 42.2545 8.79384 42.8853 9.57205 42.8853Z" fill="#EEB92F"/>
<path d="M13.401 42.6368C14.0419 42.6368 14.5615 42.1172 14.5615 41.4763C14.5615 40.8355 14.0419 40.3159 13.401 40.3159C12.7601 40.3159 12.2406 40.8355 12.2406 41.4763C12.2406 42.1172 12.7601 42.6368 13.401 42.6368Z" fill="#EEB92F"/>
<path d="M17.2298 42.388C17.7333 42.388 18.1415 41.9798 18.1415 41.4762C18.1415 40.9727 17.7333 40.5645 17.2298 40.5645C16.7262 40.5645 16.318 40.9727 16.318 41.4762C16.318 41.9798 16.7262 42.388 17.2298 42.388Z" fill="#EEB92F"/>
<path d="M21.0586 42.1394C21.4248 42.1394 21.7217 41.8426 21.7217 41.4763C21.7217 41.1101 21.4248 40.8132 21.0586 40.8132C20.6924 40.8132 20.3955 41.1101 20.3955 41.4763C20.3955 41.8426 20.6924 42.1394 21.0586 42.1394Z" fill="#EEB92F"/>
<path d="M11.4865 39.3209C12.1274 39.3209 12.6469 38.8013 12.6469 38.1604C12.6469 37.5196 12.1274 37 11.4865 37C10.8456 37 10.326 37.5196 10.326 38.1604C10.326 38.8013 10.8456 39.3209 11.4865 39.3209Z" fill="#EEB92F"/>
<path d="M15.3156 39.0723C15.8191 39.0723 16.2273 38.6641 16.2273 38.1605C16.2273 37.657 15.8191 37.2488 15.3156 37.2488C14.812 37.2488 14.4038 37.657 14.4038 38.1605C14.4038 38.6641 14.812 39.0723 15.3156 39.0723Z" fill="#EEB92F"/>
<path d="M19.1441 38.8235C19.5103 38.8235 19.8072 38.5266 19.8072 38.1604C19.8072 37.7942 19.5103 37.4973 19.1441 37.4973C18.7778 37.4973 18.481 37.7942 18.481 38.1604C18.481 38.5266 18.7778 38.8235 19.1441 38.8235Z" fill="#EEB92F"/>
<path d="M29.4219 42.125H29.9528V42.6295H30.4837V43.6383H29.4219V43.1339H28.891V42.6295L26.7673 42.6496V43.1339H26.2364V47.1694H26.7673V47.6739H28.891V47.1694H29.4219V46.665H30.4837V47.6739H29.9528V48.1783H29.4219V48.6827H26.2364V48.1783H25.7055V47.6739H25.1746V42.6295H25.7055V42.125H26.2364V41.6206H29.4219V42.125Z" fill="#EEB92F"/>
<path d="M33.1343 46.6648V47.6737H35.7889V46.6648H33.1343ZM32.0724 46.1604H32.6034V45.6559H35.7889V45.1515H35.258V44.6471H32.6034V43.6382H35.7889V44.1426H36.3198V44.6471H36.8507V48.6826H32.6034V48.1781H32.0724V47.6737H31.5415V46.6648H32.0724V46.1604Z" fill="#EEB92F"/>
<path d="M38.9702 48.6826H37.9083V43.6382H42.1557V44.1426H42.6866V44.6471H43.2175V48.6826H42.1557V45.1515H41.6248V44.6471H38.9702V48.6826Z" fill="#EEB92F"/>
<path d="M46.4437 47.1695H46.9747V47.6739H47.5056V48.6828H46.4437V48.1783H45.9129V47.6739H45.3819V44.6473H44.3201V43.6384H45.3819V41.6206H46.4437V43.6384H47.5056V44.6473H46.4437V47.1695Z" fill="#EEB92F"/>
<path d="M50.2011 44.6471V45.1515H49.6701V47.1693H50.2011V47.6737H52.3247V47.1693H52.8557V45.1515H52.3247V44.6471H50.2011ZM49.1392 44.1426H49.6701V43.6382H52.8557V44.1426H53.3866V44.6471H53.9175V47.6737H53.3866V48.1781H52.8557V48.6826H49.6701V48.1781H49.1392V47.6737H48.6083V44.6471H49.1392V44.1426Z" fill="#EEB92F"/>
<path d="M56.037 47.1695H56.5678V47.6739H58.6915V47.1695H59.2225V46.1606H58.6915V45.6561H56.037V45.1517H55.506V44.6473H54.9751V42.6295H55.506V42.1251H56.037V41.6206H59.2225V42.1251H59.7534V42.6295H60.2843V43.6384H59.2225V43.1339H58.6915V42.6295H56.5678V43.1339H56.037V44.1428H56.5678V44.6473H59.2225V45.1517H59.7534V45.6561H60.2843V47.6739H59.7534V48.1783H59.2225V48.6828H56.037V48.1783H55.506V47.6739H54.9751V46.665H56.037V47.1695Z" fill="#EEB92F"/>
<path d="M65.5894 48.1781V48.6826H62.4039V50.7004H61.342V43.6382H65.5894V44.1426H66.1203V44.6471H66.6513V47.6737H66.1203V48.1781H65.5894ZM62.4039 47.6737H65.0585V47.1693H65.5894V45.1515H65.0585V44.6471H62.4039V47.6737Z" fill="#EEB92F"/>
<path d="M67.7538 41.6206H69.8775V47.6739H70.9393V48.6828H67.7538V47.6739H68.8156V42.6295H67.7538V41.6206Z" fill="#EEB92F"/>
<path d="M73.1485 41.6206H74.2103V42.6295H73.1485V41.6206ZM72.0867 47.6739H73.1485V44.6473H72.0867V43.6384H74.2103V47.6739H75.2722V48.6828H72.0867V47.6739Z" fill="#EEB92F"/>
<path d="M77.5264 47.1695H78.0573V47.6739H78.5882V48.6828H77.5264V48.1783H76.9955V47.6739H76.4645V44.6473H75.4027V43.6384H76.4645V41.6206H77.5264V43.6384H78.5882V44.6473H77.5264V47.1695Z" fill="#EEB92F"/>
<path d="M80.7526 43.6382H85V44.6471H81.2835V45.6559H83.9382V46.1604H84.4691V46.6648H85V47.6737H84.4691V48.1781H83.9382V48.6826H79.6908V47.6737H83.4072V46.6648H80.7526V46.1604H80.2217V45.6559H79.6908V44.6471H80.2217V44.1426H80.7526V43.6382Z" fill="#EEB92F"/>
</svg>
