<svg width="24" height="25" viewBox="0 0 24 25" fill="none" xmlns="http://www.w3.org/2000/svg">
<g id="iconoir:google-docs">
<path id="Vector" d="M7 7.08203H17M7 12.082H17M7 17.082H13M19 3.08203H5C4.46957 3.08203 3.96086 3.29274 3.58579 3.66782C3.21071 4.04289 3 4.5516 3 5.08203V19.082C3 19.6125 3.21071 20.1212 3.58579 20.4962C3.96086 20.8713 4.46957 21.082 5 21.082H19C19.5304 21.082 20.0391 20.8713 20.4142 20.4962C20.7893 20.1212 21 19.6125 21 19.082V5.08203C21 4.5516 20.7893 4.04289 20.4142 3.66782C20.0391 3.29274 19.5304 3.08203 19 3.08203Z" stroke="#3D3D3D" stroke-width="1.5" stroke-linecap="round" stroke-linejoin="round"/>
</g>
</svg>
