<svg width="24" height="20" viewBox="0 0 24 20" fill="none" xmlns="http://www.w3.org/2000/svg">
<g id="logos:discord-icon" clip-path="url(#clip0_1007_27154)">
<path id="Vector" d="M20.3302 2.30988C18.7563 1.57344 17.0912 1.05017 15.3789 0.753906C15.1656 1.1395 14.9165 1.65812 14.7446 2.07072C12.8985 1.79312 11.0693 1.79312 9.25715 2.07072C9.0854 1.65822 8.83059 1.1395 8.61534 0.753906C6.90139 1.05031 5.23486 1.57491 3.66018 2.31372C0.526681 7.04894 -0.322788 11.6664 0.1019 16.2185C2.18024 17.7706 4.19437 18.7134 6.17456 19.3304C6.66668 18.6536 7.10171 17.9371 7.47515 17.1883C6.76417 16.9176 6.07877 16.584 5.42709 16.1915C5.59858 16.0644 5.76604 15.9319 5.92921 15.7943C9.87815 17.6414 14.1689 17.6414 18.0708 15.7943C18.2347 15.931 18.4021 16.0635 18.5728 16.1915C17.9201 16.5851 17.2334 16.9193 16.521 17.1903C16.8966 17.9421 17.3308 18.6593 17.8216 19.3323C19.8036 18.7154 21.8196 17.7725 23.898 16.2185C24.3964 10.9415 23.0467 6.36644 20.3302 2.30988ZM8.01318 13.4191C6.82771 13.4191 5.85553 12.3123 5.85553 10.9647C5.85553 9.61703 6.80699 8.50844 8.01318 8.50844C9.21946 8.50844 10.1916 9.61506 10.1708 10.9647C10.1727 12.3123 9.21946 13.4191 8.01318 13.4191ZM15.9867 13.4191C14.8012 13.4191 13.8291 12.3123 13.8291 10.9647C13.8291 9.61703 14.7805 8.50844 15.9867 8.50844C17.193 8.50844 18.1651 9.61506 18.1444 10.9647C18.1444 12.3123 17.193 13.4191 15.9867 13.4191Z" fill="#5865F2"/>
</g>
<defs>
<clipPath id="clip0_1007_27154">
<rect width="24" height="18.6562" fill="white" transform="translate(0 0.753906)"/>
</clipPath>
</defs>
</svg>
