<svg width="25" height="26" viewBox="0 0 25 26" fill="none" xmlns="http://www.w3.org/2000/svg">
<g id="f7:doc">
<path id="Vector" d="M6.94443 23.7983H18.056C20.2221 23.7983 21.2998 22.6996 21.2998 20.5233V11.0228C21.2998 9.67282 21.1534 9.08711 20.3163 8.22907L14.5404 2.35943C13.7458 1.54291 13.0967 1.36523 11.9145 1.36523H6.94443C4.78908 1.36523 3.70068 2.47416 3.70068 4.65095V20.5233C3.70068 22.7099 4.78908 23.7983 6.94443 23.7983ZM7.02792 22.1139C5.95024 22.1139 5.38506 21.538 5.38506 20.492V4.6822C5.38506 3.64648 5.95024 3.04961 7.03863 3.04961H11.6842V9.12907C11.6842 10.4474 12.3538 11.096 13.6511 11.096H19.6154V20.492C19.6154 21.538 19.0605 22.1139 17.9726 22.1139H7.02792ZM13.8395 9.51568C13.4315 9.51568 13.2636 9.34872 13.2636 8.92997V3.37416L19.2904 9.51613L13.8395 9.51568Z" fill="#3D3D3D"/>
</g>
</svg>
