<svg width="80" height="81" viewBox="0 0 80 81" fill="none" xmlns="http://www.w3.org/2000/svg">
<g id="uim:box">
<path id="Vector" opacity="0.25" d="M67.4336 24.6316L40.0002 40.4982L12.5669 24.6316C13.1301 23.6566 13.9333 22.8418 14.9002 22.2649L36.6669 9.69824C38.7336 8.53158 41.2669 8.53158 43.3336 9.69824L65.1002 22.2649C66.0669 22.8416 66.8702 23.6582 67.4336 24.6316Z" fill="#424242"/>
<path id="Vector_2" opacity="0.5" d="M39.9998 40.5005V72.1671C38.9489 72.1656 37.9119 71.9263 36.9665 71.4671L14.9998 58.7671C13.9881 58.1818 13.1477 57.3411 12.5627 56.3291C11.9777 55.3172 11.6687 54.1693 11.6665 53.0005V28.0005C11.672 26.8195 11.982 25.6599 12.5665 24.6338L39.9998 40.5005Z" fill="#1B1B1B"/>
<path id="Vector_3" d="M68.3333 28.0005V53.0005C68.3311 54.1693 68.0221 55.3172 67.4371 56.3291C66.8522 57.3411 66.0118 58.1818 65 58.7671L42.9333 71.5005C42.0167 71.9338 41.0133 72.1605 40 72.1671V40.5005L67.4333 24.6338C68.0167 25.6605 68.3267 26.8205 68.3333 28.0005Z" fill="#111111"/>
</g>
</svg>
