<svg width="177" height="30" viewBox="0 0 177 30" fill="none" xmlns="http://www.w3.org/2000/svg">
<mask id="mask0_3024_3044" style="mask-type:luminance" maskUnits="userSpaceOnUse" x="35" y="0" width="13" height="30">
<path d="M35.0142 0H47.6192V29.979H35.0142V0Z" fill="white"/>
</mask>
<g mask="url(#mask0_3024_3044)">
<path d="M41.6968 3.97232H47.4385V0H42.8648C40.0281 0 37.7194 2.55191 37.7194 5.68763V7.64671H35.4243V11.8297H37.7194V29.5757H41.6968V11.8327H46.2896V7.64671H41.6968V3.97232Z" fill="#FBFCFC"/>
</g>
<mask id="mask1_3024_3044" style="mask-type:luminance" maskUnits="userSpaceOnUse" x="46" y="6" width="22" height="24">
<path d="M46.2188 6.86719H67.2272V29.9999H46.2188V6.86719Z" fill="white"/>
</mask>
<g mask="url(#mask1_3024_3044)">
<path d="M56.8413 7.61963C51.0694 7.61963 46.7173 12.4285 46.7173 18.8113C46.7173 25.1881 51.0694 30 56.8413 30C62.6131 30 66.9653 25.1911 66.9653 18.8113C66.9653 12.4315 62.6131 7.61963 56.8413 7.61963ZM62.7964 18.8113C62.7964 23.1267 60.4029 26.0277 56.8413 26.0277C53.2769 26.0277 50.8861 23.1267 50.8861 18.8113C50.8861 14.4929 53.2797 11.5919 56.8413 11.5919C60.4029 11.5919 62.7964 14.4929 62.7964 18.8113Z" fill="#FBFCFC"/>
</g>
<path d="M87.0616 11.8326H92.9948V7.64663H87.0616V1.98608H83.0842V7.64663H78.4695C74.6972 7.64663 73.1435 10.987 73.1271 11.0201L72.8973 11.0321V7.64663H68.9199V29.5756H72.8973V17.7791C72.8973 14.2762 75.1103 11.8326 78.278 11.8326H83.0842V23.891C83.0842 27.0267 85.3929 29.5756 88.2269 29.5756H93.1863V25.6033H87.0588V11.8326H87.0616Z" fill="#FBFCFC"/>
<mask id="mask2_3024_3044" style="mask-type:luminance" maskUnits="userSpaceOnUse" x="94" y="7" width="20" height="23">
<path d="M94.5376 7.63745H113.445V29.9998H94.5376V7.63745Z" fill="white"/>
</mask>
<g mask="url(#mask2_3024_3044)">
<path d="M109.178 19.654C109.178 23.3464 106.916 26.0247 103.797 26.0247C100.692 26.0247 99.1825 24.2191 99.1825 20.5026V7.64673H95.2051V20.9239C95.2051 26.6928 97.9898 30 102.843 30C107.156 30 108.877 26.768 108.948 26.6296L109.181 26.6175V29.5787H113.158V7.64673H109.181V19.654H109.178Z" fill="#FBFCFC"/>
</g>
<path d="M126.475 7.61963C122.172 7.61963 120.44 10.8517 120.369 10.9901L120.137 11.0021V7.64671H116.159V29.5787H120.137V17.9627C120.137 14.2733 122.402 11.5919 125.517 11.5919C128.625 11.5919 130.135 13.3975 130.135 17.1171V29.5757H134.112V16.6928C134.112 10.9239 131.33 7.61963 126.475 7.61963Z" fill="#FBFCFC"/>
<mask id="mask3_3024_3044" style="mask-type:luminance" maskUnits="userSpaceOnUse" x="135" y="6" width="22" height="24">
<path d="M135.854 6.86719H156.163V29.9999H135.854V6.86719Z" fill="white"/>
</mask>
<g mask="url(#mask3_3024_3044)">
<path d="M151.726 10.7915H151.502L151.493 10.7794C151.471 10.7493 149.324 7.61963 145.388 7.61963C139.991 7.61963 136.221 12.2209 136.221 18.8113C136.221 25.3988 139.991 30 145.388 30C149.319 30 151.471 26.6627 151.493 26.6266L151.726 26.6175V29.5787H155.703V7.64671H151.726V10.7915ZM151.726 18.8113C151.726 23.3283 149.641 26.0277 146.151 26.0277C142.543 26.0277 140.387 23.3283 140.387 18.8113C140.387 14.2913 142.546 11.5919 146.151 11.5919C149.641 11.5919 151.726 14.2913 151.726 18.8113Z" fill="#FBFCFC"/>
</g>
<mask id="mask4_3024_3044" style="mask-type:luminance" maskUnits="userSpaceOnUse" x="157" y="0" width="20" height="30">
<path d="M157.563 0H176.471V29.979H157.563V0Z" fill="white"/>
</mask>
<g mask="url(#mask4_3024_3044)">
<path d="M164.247 3.97232H169.991V0H165.415C162.578 0 160.272 2.55191 160.272 5.68763V7.64671H157.974V11.8297H160.272V29.5757H164.249V11.8327H171.95V29.5757H175.924V7.64671H164.249V3.97232H164.247Z" fill="#FBFCFC"/>
</g>
<mask id="mask5_3024_3044" style="mask-type:luminance" maskUnits="userSpaceOnUse" x="0" y="0" width="29" height="30">
<path d="M0 0H28.0112V29.979H0V0Z" fill="white"/>
</mask>
<g mask="url(#mask5_3024_3044)">
<path d="M22.0452 17.746V11.8327H27.3958V0H22.0452V5.91634H16.6919V0H11.344V5.91634H5.99072V0H0.640137V29.5757H11.344V23.6624H16.6919V17.746H22.0452Z" fill="#FBFCFC"/>
</g>
<path d="M22.0425 23.6624H16.6919V29.5757H22.0425V23.6624Z" fill="#FBFCFC"/>
<path d="M27.3955 17.7458H22.0449V23.6592H27.3955V17.7458Z" fill="#FBFCFC"/>
<mask id="mask6_3024_3044" style="mask-type:luminance" maskUnits="userSpaceOnUse" x="171" y="0" width="6" height="5">
<path d="M171.569 0H176.471V4.55613H171.569V0Z" fill="white"/>
</mask>
<g mask="url(#mask6_3024_3044)">
<path d="M175.924 0H171.946V3.97232H175.924V0Z" fill="#FBFCFC"/>
</g>
</svg>
