<svg width="25" height="26" viewBox="0 0 25 26" fill="none" xmlns="http://www.w3.org/2000/svg">
<path id="logo" fill-rule="evenodd" clip-rule="evenodd" d="M0.359863 5.27329C0.359863 5.10342 0.359863 5.01848 0.392922 4.9536C0.422002 4.89653 0.468402 4.85013 0.525474 4.82105C0.590356 4.78799 0.675291 4.78799 0.845161 4.78799H4.67033C4.8402 4.78799 4.92513 4.78799 4.99001 4.75493C5.04708 4.72585 5.09348 4.67945 5.12256 4.62238C5.15562 4.5575 5.15562 4.47256 5.15562 4.30269V0.845649C5.15562 0.675779 5.15562 0.590844 5.18868 0.525962C5.21776 0.468891 5.26416 0.42249 5.32123 0.39341C5.38612 0.360352 5.47105 0.360352 5.64092 0.360352H23.8746C24.0444 0.360352 24.1294 0.360352 24.1943 0.39341C24.2513 0.42249 24.2977 0.468891 24.3268 0.525962C24.3599 0.590844 24.3599 0.675779 24.3599 0.845649L24.3599 25.2373C24.3599 25.4072 24.3599 25.4921 24.3268 25.557C24.2977 25.614 24.2513 25.6604 24.1943 25.6895C24.1294 25.7226 24.0444 25.7226 23.8746 25.7226L5.64533 25.7226C5.47546 25.7226 5.39052 25.7226 5.32564 25.6895C5.26857 25.6604 5.22217 25.614 5.19309 25.557C5.16003 25.4921 5.16003 25.4072 5.16003 25.2373V21.7785C5.16003 21.6086 5.16003 21.5236 5.12697 21.4588C5.09789 21.4017 5.05149 21.3553 4.99442 21.3262C4.92954 21.2932 4.8446 21.2932 4.67473 21.2932H0.84516C0.675291 21.2932 0.590356 21.2932 0.525474 21.2601C0.468402 21.231 0.422002 21.1846 0.392922 21.1275C0.359863 21.0627 0.359863 20.9777 0.359863 20.8079V5.27329ZM8.87379 4.92145C8.87379 4.75158 8.87379 4.66664 8.90685 4.60176C8.93592 4.54469 8.98232 4.49829 9.0394 4.46921C9.10428 4.43615 9.18921 4.43615 9.35908 4.43615H19.451C19.6209 4.43615 19.7058 4.43615 19.7707 4.46921C19.8277 4.49829 19.8741 4.54469 19.9032 4.60176C19.9363 4.66664 19.9363 4.75158 19.9363 4.92145V8.42654C19.9363 8.59641 19.9363 8.68135 19.9032 8.74623C19.8741 8.8033 19.8277 8.8497 19.7707 8.87878C19.7058 8.91184 19.6209 8.91184 19.451 8.91184H9.35908C9.18921 8.91184 9.10428 8.91184 9.0394 8.87878C8.98232 8.8497 8.93592 8.8033 8.90685 8.74623C8.87379 8.68135 8.87379 8.59641 8.87379 8.42654V4.92145ZM19.9363 17.6025C19.9363 17.4326 19.9363 17.3477 19.9032 17.2828C19.8741 17.2257 19.8277 17.1793 19.7707 17.1502C19.7058 17.1172 19.6209 17.1172 19.451 17.1172H9.35908C9.18921 17.1172 9.10428 17.1172 9.0394 17.0841C8.98232 17.055 8.93592 17.0086 8.90685 16.9516C8.87379 16.8867 8.87379 16.8017 8.87379 16.6319V9.39984C8.87379 9.22997 8.87379 9.14503 8.84073 9.08015C8.81165 9.02308 8.76525 8.97668 8.70818 8.9476C8.64329 8.91454 8.55836 8.91454 8.38849 8.91454H4.93408C4.76421 8.91454 4.67928 8.91454 4.6144 8.9476C4.55732 8.97668 4.51092 9.02308 4.48184 9.08015C4.44879 9.14503 4.44879 9.22997 4.44879 9.39984L4.44879 16.6347C4.44879 16.8045 4.44879 16.8895 4.48184 16.9544C4.51092 17.0114 4.55732 17.0578 4.6144 17.0869C4.67928 17.12 4.76421 17.12 4.93408 17.12H8.38849C8.55836 17.12 8.64329 17.12 8.70818 17.153C8.76525 17.1821 8.81165 17.2285 8.84073 17.2856C8.87379 17.3505 8.87379 17.4354 8.87379 17.6053V21.1076C8.87379 21.2774 8.87379 21.3624 8.90685 21.4273C8.93592 21.4843 8.98232 21.5307 9.0394 21.5598C9.10428 21.5929 9.18921 21.5929 9.35908 21.5929H19.451C19.6209 21.5929 19.7058 21.5929 19.7707 21.5598C19.8277 21.5307 19.8741 21.4843 19.9032 21.4273C19.9363 21.3624 19.9363 21.2774 19.9363 21.1076V17.6025Z" fill="white"/>
</svg>
