<svg width="21" height="22" viewBox="0 0 21 22" fill="none" xmlns="http://www.w3.org/2000/svg">
<path fill-rule="evenodd" clip-rule="evenodd" d="M0.287109 4.33051C0.287109 4.1594 0.287109 4.07384 0.32041 4.00848C0.349703 3.95099 0.396444 3.90425 0.453933 3.87496C0.51929 3.84166 0.604848 3.84166 0.775962 3.84166H3.9579C4.12901 3.84166 4.21457 3.84166 4.27993 3.80836C4.33742 3.77906 4.38416 3.73232 4.41345 3.67483C4.44675 3.60948 4.44675 3.52392 4.44675 3.3528V0.488853C4.44675 0.317738 4.44675 0.232181 4.48005 0.166824C4.50935 0.109334 4.55609 0.0625936 4.61358 0.0333011C4.67893 0 4.76449 0 4.9356 0H20.2238C20.3949 0 20.4804 0 20.5458 0.0333011C20.6033 0.0625936 20.65 0.109334 20.6793 0.166824C20.7126 0.232181 20.7126 0.317739 20.7126 0.488853V21.5111C20.7126 21.6823 20.7126 21.7678 20.6793 21.8332C20.65 21.8907 20.6033 21.9374 20.5458 21.9667C20.4804 22 20.3949 22 20.2238 22L4.93975 22C4.76863 22 4.68308 22 4.61772 21.9667C4.56023 21.9374 4.51349 21.8907 4.4842 21.8332C4.45089 21.7678 4.45089 21.6823 4.45089 21.5111V18.6453C4.45089 18.4741 4.45089 18.3886 4.41759 18.3232C4.3883 18.2657 4.34156 18.219 4.28407 18.1897C4.21871 18.1564 4.13316 18.1564 3.96204 18.1564H0.775962C0.604848 18.1564 0.51929 18.1564 0.453933 18.1231C0.396444 18.0938 0.349703 18.0471 0.32041 17.9896C0.287109 17.9242 0.287109 17.8387 0.287109 17.6675V4.33051ZM7.67222 4.02468C7.67222 3.85357 7.67222 3.76801 7.70552 3.70266C7.73481 3.64517 7.78155 3.59843 7.83904 3.56913C7.9044 3.53583 7.98996 3.53583 8.16107 3.53583H16.7793C16.9504 3.53583 17.036 3.53583 17.1014 3.56913C17.1588 3.59843 17.2056 3.64517 17.2349 3.70266C17.2682 3.76801 17.2682 3.85357 17.2682 4.02468V6.92933C17.2682 7.10045 17.2682 7.186 17.2349 7.25136C17.2056 7.30885 17.1588 7.35559 17.1014 7.38488C17.036 7.41818 16.9504 7.41818 16.7793 7.41818H8.16107C7.98996 7.41818 7.9044 7.41818 7.83904 7.45149C7.78155 7.48078 7.73481 7.52752 7.70552 7.58501C7.67222 7.65037 7.67222 7.73592 7.67222 7.90704V14.047C7.67222 14.2181 7.67222 14.3036 7.70552 14.369C7.73481 14.4265 7.78155 14.4732 7.83904 14.5025C7.9044 14.5358 7.98996 14.5358 8.16107 14.5358H16.7793C16.9504 14.5358 17.036 14.5358 17.1014 14.5691C17.1588 14.5984 17.2056 14.6452 17.2349 14.7027C17.2682 14.768 17.2682 14.8536 17.2682 15.0247V17.9293C17.2682 18.1004 17.2682 18.186 17.2349 18.2514C17.2056 18.3088 17.1588 18.3556 17.1014 18.3849C17.036 18.4182 16.9504 18.4182 16.7793 18.4182H8.16107C7.98996 18.4182 7.9044 18.4182 7.83904 18.3849C7.78155 18.3556 7.73481 18.3088 7.70552 18.2514C7.67222 18.186 7.67222 18.1004 7.67222 17.9293L7.67222 15.0252C7.67222 14.854 7.67222 14.7685 7.63892 14.7031C7.60962 14.6456 7.56288 14.5989 7.50539 14.5696C7.44004 14.5363 7.35448 14.5363 7.18336 14.5363H4.32268C4.15157 14.5363 4.06601 14.5363 4.00065 14.503C3.94316 14.4737 3.89642 14.427 3.86713 14.3695C3.83383 14.3041 3.83383 14.2186 3.83383 14.0475L3.83383 7.73487C3.83383 7.56376 3.83383 7.4782 3.86713 7.41284C3.89642 7.35535 3.94316 7.30861 4.00065 7.27932C4.06601 7.24602 4.15157 7.24602 4.32268 7.24602H7.18336C7.35448 7.24602 7.44004 7.24602 7.50539 7.21272C7.56288 7.18342 7.60962 7.13668 7.63892 7.07919C7.67222 7.01384 7.67222 6.92828 7.67222 6.75717V4.02468Z" fill="#06F897"/>
</svg>
