<svg width="24" height="25" viewBox="0 0 24 25" fill="none" xmlns="http://www.w3.org/2000/svg">
<g id="material-symbols:search">
<path id="Vector" d="M19.6 21.082L13.3 14.782C12.8 15.182 12.225 15.4987 11.575 15.732C10.925 15.9654 10.2333 16.082 9.5 16.082C7.68333 16.082 6.146 15.4527 4.888 14.194C3.63 12.9354 3.00067 11.398 3 9.58203C3 7.76536 3.62933 6.22803 4.888 4.97003C6.14667 3.71203 7.684 3.0827 9.5 3.08203C11.3167 3.08203 12.8543 3.71136 14.113 4.97003C15.3717 6.2287 16.0007 7.76603 16 9.58203C16 10.3154 15.8833 11.007 15.65 11.657C15.4167 12.307 15.1 12.882 14.7 13.382L21 19.682L19.6 21.082ZM9.5 14.082C10.75 14.082 11.8127 13.6447 12.688 12.77C13.5633 11.8954 14.0007 10.8327 14 9.58203C14 8.33203 13.5627 7.2697 12.688 6.39503C11.8133 5.52036 10.7507 5.0827 9.5 5.08203C8.25 5.08203 7.18767 5.5197 6.313 6.39503C5.43833 7.27036 5.00067 8.3327 5 9.58203C5 10.832 5.43767 11.8947 6.313 12.77C7.18833 13.6454 8.25067 14.0827 9.5 14.082Z" fill="#888888"/>
</g>
</svg>
